# xmcd
#
# Track frame offsets: 
#        150
#        27016
#        50206
#        73874
#        88548
#        107359
#        131085
#        147159
#        185965
#        212927
#        227688
#        238832
#        252078
#        266828
#        292322
#        320015
#        334071
#
# Disc length: 4669 seconds
#
# Revision: 3
# Processed by: cddbd v1.5.2PL0 Copyright (c) Steve Scherf et al.
# Submitted via: ExactAudioCopyFreeDBPlugin 1.0
#
DISCID=14123b11
DTITLE=B.B. King - Ladies and Gentlemen.... Mr. B.B. King [CD 06) - Luci
DTITLE=lle Talks Back (1971-1977)
DYEAR=2012
DGENRE=Blues
TTITLE0=I Got Some Help I Don't Need
TTITLE1=Blue Shadows
TTITLE2=Ghetto Woman
TTITLE3=Ain't Nobody Home
TTITLE4=Guess Who
TTITLE5=Five Long Years
TTITLE6=I Like To Live The Love
TTITLE7=To Know You Is To Love You
TTITLE8=Philadelphia
TTITLE9=3 O'Clock Blues [live]
TTITLE10=Lucille Talks Back
TTITLE11=Reconsider Baby
TTITLE12=Don't Make Me Pay For His Mistakes
TTITLE13=Let The Good Times Roll [live]
TTITLE14=Don't You Lie To Me
TTITLE15=Mother Fuyer
TTITLE16=The Same Love That Made Me Laugh
EXTD=
EXTT0=
EXTT1=
EXTT2=
EXTT3=
EXTT4=
EXTT5=
EXTT6=
EXTT7=
EXTT8=
EXTT9=
EXTT10=
EXTT11=
EXTT12=
EXTT13=
EXTT14=
EXTT15=
EXTT16=
PLAYORDER=
